<?xml version="1.0" encoding="UTF-8"?><svg id="Ebene_1" xmlns="http://www.w3.org/2000/svg" viewBox="0 0 206.9 50.2"><path d="M0,1.2h7.6v6h.2c1.53-1.93,3.45-3.62,5.75-5.05,2.3-1.43,4.85-2.15,7.65-2.15,1.27,0,2.58.15,3.95.45,1.37.3,2.68.77,3.95,1.4,1.27.63,2.42,1.48,3.45,2.55,1.03,1.07,1.88,2.37,2.55,3.9.87-1.2,1.87-2.3,3-3.3,1.13-1,2.33-1.87,3.6-2.6,1.27-.73,2.58-1.32,3.95-1.75,1.37-.43,2.68-.65,3.95-.65,1.93,0,3.83.25,5.7.75,1.87.5,3.53,1.4,5,2.7,1.47,1.3,2.65,3.08,3.55,5.35.9,2.27,1.35,5.13,1.35,8.6v31.6h-8.2V17c0-3-.67-5.32-2-6.95-1.33-1.63-3.47-2.45-6.4-2.45-1.27,0-2.6.18-4,.55-1.4.37-2.68.95-3.85,1.75-1.17.8-2.13,1.83-2.9,3.1-.77,1.27-1.15,2.8-1.15,4.6v31.4h-8.2V17c0-3-.67-5.32-2-6.95-1.33-1.63-3.47-2.45-6.4-2.45-1.27,0-2.6.18-4,.55-1.4.37-2.68.95-3.85,1.75-1.17.8-2.13,1.83-2.9,3.1-.77,1.27-1.15,2.8-1.15,4.6v31.4H0V1.2Z"/><path d="M74.9,25.1c0-3.6.53-6.93,1.6-10,1.07-3.07,2.6-5.71,4.6-7.95,2-2.23,4.45-3.98,7.35-5.25,2.9-1.27,6.18-1.9,9.85-1.9s6.95.63,9.85,1.9c2.9,1.27,5.35,3.02,7.35,5.25,2,2.23,3.53,4.88,4.6,7.95,1.07,3.07,1.6,6.4,1.6,10s-.53,6.93-1.6,10c-1.07,3.07-2.6,5.72-4.6,7.95-2,2.23-4.45,3.98-7.35,5.25-2.9,1.27-6.18,1.9-9.85,1.9s-6.95-.63-9.85-1.9c-2.9-1.27-5.35-3.02-7.35-5.25-2-2.23-3.53-4.88-4.6-7.95-1.07-3.07-1.6-6.4-1.6-10ZM83.7,25.1c0,2,.2,4.08.6,6.25.4,2.17,1.15,4.18,2.25,6.05,1.1,1.87,2.6,3.4,4.5,4.6,1.9,1.2,4.32,1.8,7.25,1.8s5.35-.6,7.25-1.8c1.9-1.2,3.4-2.73,4.5-4.6,1.1-1.87,1.85-3.88,2.25-6.05.4-2.17.6-4.25.6-6.25s-.2-4.08-.6-6.25c-.4-2.17-1.15-4.18-2.25-6.05-1.1-1.87-2.6-3.4-4.5-4.6-1.9-1.2-4.32-1.8-7.25-1.8s-5.35.6-7.25,1.8c-1.9,1.2-3.4,2.73-4.5,4.6-1.1,1.87-1.85,3.88-2.25,6.05-.4,2.17-.6,4.25-.6,6.25Z"/><path d="M131.4,1.2h8.2v8.2h.2c1.93-3.27,4.2-5.55,6.8-6.85s5.97-1.95,10.1-1.95v9c-.8-.07-1.73-.12-2.8-.15-1.07-.03-1.97-.05-2.7-.05-2,0-3.72.42-5.15,1.25-1.43.83-2.63,1.87-3.6,3.1-.97,1.23-1.68,2.6-2.15,4.1-.47,1.5-.7,2.95-.7,4.35v26.8h-8.2V1.2Z"/><path d="M170.6,26.9c0,2.4.32,4.62.95,6.65.63,2.03,1.55,3.82,2.75,5.35,1.2,1.53,2.7,2.73,4.5,3.6,1.8.87,3.87,1.3,6.2,1.3,7.13,0,11.6-3.57,13.4-10.7l8.1,1c-1.53,5.4-4.22,9.43-8.05,12.1-3.83,2.67-8.42,4-13.75,4-3.67.07-6.92-.55-9.75-1.85-2.83-1.3-5.23-3.07-7.2-5.3-1.97-2.23-3.45-4.87-4.45-7.9-1-3.03-1.5-6.25-1.5-9.65,0-3.87.46-7.37,1.4-10.5.93-3.13,2.33-5.82,4.2-8.05,1.87-2.23,4.23-3.95,7.1-5.15,2.87-1.2,6.23-1.8,10.1-1.8s7,.63,9.8,1.9c2.8,1.27,5.12,3.03,6.95,5.3,1.83,2.27,3.22,4.92,4.15,7.95.93,3.03,1.4,6.32,1.4,9.85v1.9h-36.3ZM198.1,20.5c-.27-1.93-.73-3.77-1.4-5.5-.67-1.73-1.6-3.23-2.8-4.5-1.2-1.27-2.63-2.27-4.3-3-1.67-.73-3.63-1.1-5.9-1.1-2,0-3.78.4-5.35,1.2-1.57.8-2.9,1.85-4,3.15-1.1,1.3-1.97,2.8-2.6,4.5-.63,1.7-1.02,3.45-1.15,5.25h27.5Z"/></svg>