<?xml version="1.0" encoding="UTF-8"?><svg id="Ebene_1" xmlns="http://www.w3.org/2000/svg" viewBox="0 0 166.6 72.4"><path d="M0,23.4h8.9l11.9,35.1h.2l11.4-35.1h7l11.2,35.1h.2l12.4-35.1h8.3l-17.4,47.8h-7.1l-11.3-35.1h-.2l-11.6,35.1h-7.3L0,23.4Z"/><path d="M78.9,0h8.2v9.4h-8.2V0ZM78.9,23.4h8.2v47.8h-8.2V23.4Z"/><path d="M93.9,23.4h7.9v-14.9h8.2v14.9h8.9v7h-8.9v30.4c0,1.13.13,2.18.4,3.15.27.97,1.23,1.45,2.9,1.45.93,0,1.8-.08,2.6-.25.8-.17,1.63-.42,2.5-.75v7c-1.33.33-2.68.58-4.05.75-1.37.17-2.72.25-4.05.25-2.13,0-3.77-.23-4.9-.7-1.13-.47-1.97-1.12-2.5-1.95-.53-.83-.85-1.83-.95-3-.1-1.17-.15-2.42-.15-3.75V30.4h-7.9v-7Z"/><path d="M127.3,0h8.2v29.8h.2c1.53-2.4,3.47-4.27,5.8-5.6,2.33-1.33,5.07-2,8.2-2,2.4,0,4.63.28,6.7.85,2.07.57,3.85,1.54,5.35,2.9,1.5,1.37,2.68,3.17,3.55,5.4.87,2.23,1.3,5.02,1.3,8.35v31.5h-8.2v-30.7c0-2.07-.25-3.78-.75-5.15-.5-1.37-1.2-2.47-2.1-3.3-.9-.83-1.97-1.42-3.2-1.75-1.23-.33-2.58-.5-4.05-.5-3.8,0-6.88,1.13-9.25,3.4-2.37,2.27-3.55,5.33-3.55,9.2v28.8h-8.2V0Z"/></svg>