<?xml version="1.0" encoding="UTF-8"?><svg id="Ebene_1" xmlns="http://www.w3.org/2000/svg" viewBox="0 0 347.5 93.6"><path d="M0,23.4h7.6v6h.2c1.53-1.93,3.45-3.62,5.75-5.05,2.3-1.43,4.85-2.15,7.65-2.15,1.27,0,2.58.15,3.95.45,1.37.3,2.68.77,3.95,1.4,1.27.63,2.42,1.48,3.45,2.55,1.03,1.07,1.88,2.37,2.55,3.9.87-1.2,1.87-2.3,3-3.3,1.13-1,2.33-1.87,3.6-2.6,1.27-.73,2.58-1.32,3.95-1.75,1.37-.43,2.68-.65,3.95-.65,1.93,0,3.83.25,5.7.75,1.87.5,3.53,1.4,5,2.7,1.47,1.3,2.65,3.08,3.55,5.35.9,2.27,1.35,5.13,1.35,8.6v31.6h-8.2v-32c0-3-.67-5.32-2-6.95-1.33-1.63-3.47-2.45-6.4-2.45-1.27,0-2.6.18-4,.55-1.4.37-2.68.95-3.85,1.75-1.17.8-2.13,1.83-2.9,3.1-.77,1.27-1.15,2.8-1.15,4.6v31.4h-8.2v-32c0-3-.67-5.32-2-6.95-1.33-1.63-3.47-2.45-6.4-2.45-1.27,0-2.6.18-4,.55-1.4.37-2.68.95-3.85,1.75-1.17.8-2.13,1.83-2.9,3.1-.77,1.27-1.15,2.8-1.15,4.6v31.4H0V23.4Z"/><path d="M83.7,49.1c0,2.4.32,4.62.95,6.65.63,2.03,1.55,3.82,2.75,5.35,1.2,1.53,2.7,2.73,4.5,3.6,1.8.87,3.87,1.3,6.2,1.3,7.13,0,11.6-3.57,13.4-10.7l8.1,1c-1.53,5.4-4.22,9.43-8.05,12.1-3.83,2.67-8.42,4-13.75,4-3.67.07-6.92-.55-9.75-1.85-2.83-1.3-5.23-3.07-7.2-5.3-1.97-2.23-3.45-4.87-4.45-7.9-1-3.03-1.5-6.25-1.5-9.65,0-3.87.46-7.37,1.4-10.5.93-3.13,2.33-5.82,4.2-8.05,1.87-2.23,4.23-3.95,7.1-5.15,2.87-1.2,6.23-1.8,10.1-1.8s7,.63,9.8,1.9c2.8,1.27,5.12,3.03,6.95,5.3,1.83,2.27,3.22,4.92,4.15,7.95.93,3.03,1.4,6.32,1.4,9.85v1.9h-36.3ZM111.2,42.7c-.27-1.93-.73-3.77-1.4-5.5-.67-1.73-1.6-3.23-2.8-4.5-1.2-1.27-2.63-2.27-4.3-3-1.67-.73-3.63-1.1-5.9-1.1-2,0-3.78.4-5.35,1.2-1.57.8-2.9,1.85-4,3.15-1.1,1.3-1.97,2.8-2.6,4.5-.63,1.7-1.02,3.45-1.15,5.25h27.5Z"/><path d="M157.7,38.3c0-3.4-.83-5.87-2.5-7.4-1.67-1.53-4.57-2.3-8.7-2.3-6.2,0-9.47,3.27-9.8,9.8l-8.2-.5c.53-5.4,2.35-9.37,5.45-11.9,3.1-2.53,7.32-3.8,12.65-3.8,2,0,4.13.18,6.4.55,2.27.37,4.35,1.08,6.25,2.14,1.9,1.07,3.48,2.56,4.75,4.49,1.27,1.93,1.9,4.46,1.9,7.58v22.15c0,2.33.37,3.81,1.1,4.44.73.63,1.53.95,2.4.95.8,0,1.63-.17,2.5-.5v6.9c-.8.2-1.63.37-2.5.5-.87.13-1.73.2-2.6.2-2.47,0-4.33-.54-5.6-1.62-1.27-1.08-2.17-2.77-2.7-5.07-4.47,5-10.13,7.49-17,7.49-2.13,0-4.13-.33-6-1-1.87-.67-3.48-1.6-4.85-2.8-1.37-1.2-2.45-2.6-3.25-4.2-.8-1.6-1.2-3.33-1.2-5.2,0-3.27.72-5.93,2.15-8,1.43-2.07,3.5-3.7,6.2-4.9,2.7-1.2,6-2.07,9.9-2.6,3.9-.53,8.32-.93,13.25-1.2v-4.2ZM157.7,47.9c-3.33.47-6.4.95-9.2,1.45-2.8.5-5.2,1.13-7.2,1.9-2,.77-3.55,1.73-4.65,2.9-1.1,1.17-1.65,2.68-1.65,4.55,0,1.47.3,2.67.9,3.6.6.93,1.35,1.68,2.25,2.25.9.57,1.88.95,2.95,1.15,1.07.2,2.1.3,3.1.3,3.87,0,7.08-1.1,9.65-3.3,2.57-2.2,3.85-5.3,3.85-9.3v-5.5Z"/><path d="M179.7,23.4h8.2v6.4h.2c1.53-2.4,3.47-4.27,5.8-5.6,2.33-1.33,5.07-2,8.2-2,2.4,0,4.63.28,6.7.85,2.07.57,3.85,1.54,5.35,2.9,1.5,1.37,2.68,3.17,3.55,5.4.87,2.23,1.3,5.02,1.3,8.35v31.5h-8.2v-30.7c0-2.07-.25-3.78-.75-5.15-.5-1.37-1.2-2.47-2.1-3.3-.9-.83-1.97-1.42-3.2-1.75-1.23-.33-2.58-.5-4.05-.5-3.8,0-6.88,1.13-9.25,3.4-2.37,2.27-3.55,5.33-3.55,9.2v28.8h-8.2V23.4Z"/><path d="M231.4,0h8.2v9.4h-8.2V0ZM231.4,23.4h8.2v47.8h-8.2V23.4Z"/><path d="M252,23.4h8.2v6.4h.2c1.53-2.4,3.47-4.27,5.8-5.6,2.33-1.33,5.07-2,8.2-2,2.4,0,4.63.28,6.7.85,2.07.57,3.85,1.54,5.35,2.9,1.5,1.37,2.68,3.17,3.55,5.4.87,2.23,1.3,5.02,1.3,8.35v31.5h-8.2v-30.7c0-2.07-.25-3.78-.75-5.15-.5-1.37-1.2-2.47-2.1-3.3-.9-.83-1.97-1.42-3.2-1.75-1.23-.33-2.58-.5-4.05-.5-3.8,0-6.88,1.13-9.25,3.4-2.37,2.27-3.55,5.33-3.55,9.2v28.8h-8.2V23.4Z"/><path d="M339.3,23.4h8.2v48.2c0,1.8-.18,3.96-.55,6.5-.37,2.53-1.28,4.95-2.75,7.25-1.47,2.3-3.67,4.25-6.6,5.85-2.93,1.6-6.97,2.4-12.1,2.4-2.93,0-5.7-.32-8.3-.95-2.6-.63-4.9-1.65-6.9-3.05-2-1.4-3.62-3.22-4.85-5.45-1.23-2.23-1.95-4.92-2.15-8.05h8.8c-.07,1.93.25,3.6.95,5,.7,1.4,1.65,2.55,2.85,3.45,1.2.9,2.6,1.57,4.2,2s3.3.65,5.1.65c3.47,0,6.15-.55,8.05-1.65,1.9-1.1,3.3-2.47,4.2-4.1.9-1.63,1.43-3.42,1.6-5.35.17-1.93.25-3.77.25-5.5v-6.8h-.2c-2.27,2.93-4.67,5.1-7.2,6.5-2.53,1.4-5.57,2.1-9.1,2.1-2.07,0-4.37-.35-6.9-1.05-2.53-.7-4.9-1.98-7.1-3.85-2.2-1.87-4.05-4.43-5.55-7.7-1.5-3.27-2.25-7.43-2.25-12.5,0-3.46.43-6.73,1.3-9.8.87-3.07,2.2-5.73,4-8,1.8-2.27,4.08-4.05,6.85-5.35,2.77-1.3,6.02-1.95,9.75-1.95s7.18.7,9.95,2.1c2.77,1.4,4.85,3.27,6.25,5.6l.2.1v-6.6ZM323.9,29.2c-4.2,0-7.7,1.48-10.5,4.45-2.8,2.97-4.2,7.52-4.2,13.65,0,2.54.32,4.88.95,7.05.63,2.17,1.58,4.08,2.85,5.75,1.27,1.67,2.8,2.97,4.6,3.9,1.8.93,3.9,1.4,6.3,1.4s4.55-.5,6.45-1.5,3.53-2.35,4.9-4.05c1.37-1.7,2.4-3.67,3.1-5.9.7-2.23,1.02-4.55.95-6.95-.07-3.27-.48-6.03-1.25-8.3-.77-2.27-1.83-4.1-3.2-5.5-1.37-1.4-2.97-2.42-4.8-3.05-1.83-.63-3.88-.95-6.15-.95Z"/></svg>