<?xml version="1.0" encoding="UTF-8"?><svg id="Ebene_1" xmlns="http://www.w3.org/2000/svg" viewBox="0 0 332.1 93.6"><path d="M0,23.4h8.2v5.7h.2-.1c1.33-1.8,3.37-3.4,6.1-4.8,2.73-1.4,5.8-2.1,9.2-2.1,4.2,0,7.77.7,10.7,2.1,2.93,1.4,5.3,3.29,7.1,5.65,1.8,2.37,3.1,5.05,3.9,8.05s1.2,6.1,1.2,9.3-.42,6.3-1.25,9.3c-.83,3-2.17,5.68-4,8.05-1.83,2.37-4.2,4.25-7.1,5.65-2.9,1.4-6.38,2.1-10.45,2.1-3.2,0-6.12-.6-8.75-1.8-2.63-1.2-4.82-3-6.55-5.4h-.2v28.4H0V23.4ZM37.7,47.3c0-2.4-.29-4.68-.85-6.85-.57-2.17-1.45-4.08-2.65-5.75-1.2-1.67-2.73-3-4.6-4-1.87-1-4.13-1.5-6.8-1.5s-4.93.5-6.8,1.5c-1.87,1-3.4,2.33-4.6,4-1.2,1.67-2.08,3.58-2.65,5.75-.57,2.17-.85,4.45-.85,6.85s.33,4.68,1,6.85c.67,2.17,1.63,4.08,2.9,5.75,1.27,1.67,2.82,3,4.65,4,1.83,1,3.95,1.5,6.35,1.5,2.67,0,4.93-.5,6.8-1.5,1.87-1,3.4-2.33,4.6-4,1.2-1.67,2.08-3.58,2.65-5.75.57-2.17.85-4.45.85-6.85Z"/><path d="M56,0h8.2v9.4h-8.2V0ZM56,23.4h8.2v47.8h-8.2V23.4Z"/><path d="M110.1,39.2c-.6-3.27-2.03-5.85-4.3-7.75-2.27-1.9-5.07-2.85-8.4-2.85-2.93,0-5.35.57-7.25,1.7-1.9,1.13-3.42,2.6-4.55,4.4-1.13,1.8-1.93,3.82-2.4,6.05-.47,2.23-.7,4.45-.7,6.65,0,2.33.27,4.62.8,6.85.53,2.23,1.37,4.22,2.5,5.95,1.13,1.73,2.63,3.13,4.5,4.2,1.87,1.07,4.17,1.6,6.9,1.6,4.07,0,7.33-1.13,9.8-3.4,2.47-2.27,3.77-5.43,3.9-9.5l8.8.7c-.73,5.87-3.1,10.43-7.1,13.7-4,3.27-9.03,4.9-15.1,4.9-3.87,0-7.28-.6-10.25-1.8-2.97-1.2-5.45-2.88-7.45-5.05-2-2.17-3.52-4.75-4.55-7.75-1.03-3-1.55-6.33-1.55-10s.52-7.07,1.55-10.2c1.03-3.13,2.55-5.85,4.55-8.15s4.47-4.08,7.4-5.35c2.93-1.27,6.33-1.9,10.2-1.9,2.47,0,4.88.33,7.25,1,2.37.67,4.5,1.67,6.4,3,1.9,1.33,3.53,3,4.9,5,1.37,2,2.35,4.37,2.95,7.1l-8.8.9Z"/><path d="M122.9,23.4h7.9v-14.9h8.2v14.9h8.9v7h-8.9v30.4c0,1.13.13,2.18.4,3.15.27.97,1.23,1.45,2.9,1.45.93,0,1.8-.08,2.6-.25.8-.17,1.63-.42,2.5-.75v7c-1.33.33-2.68.58-4.05.75-1.37.17-2.72.25-4.05.25-2.13,0-3.77-.23-4.9-.7-1.13-.47-1.97-1.12-2.5-1.95-.53-.83-.85-1.83-.95-3-.1-1.17-.15-2.42-.15-3.75V30.4h-7.9v-7Z"/><path d="M195.6,71.2h-8.2v-6.4h-.2c-1.53,2.4-3.47,4.27-5.8,5.6-2.33,1.33-5.07,2-8.2,2-2.4,0-4.63-.28-6.7-.85-2.07-.57-3.85-1.53-5.35-2.9-1.5-1.37-2.68-3.17-3.55-5.4-.87-2.23-1.3-5.02-1.3-8.35v-31.5h8.2v31.5c0,3.4.93,5.9,2.8,7.5,1.87,1.6,4.3,2.4,7.3,2.4,3.8,0,6.88-1.13,9.25-3.4,2.37-2.27,3.55-5.33,3.55-9.2v-28.8h8.2v47.8Z"/><path d="M208.2,23.4h8.2v8.2h.2c1.93-3.27,4.2-5.55,6.8-6.85s5.97-1.95,10.1-1.95v9c-.8-.07-1.73-.12-2.8-.15-1.07-.03-1.97-.05-2.7-.05-2,0-3.72.42-5.15,1.25-1.43.83-2.63,1.87-3.6,3.1-.97,1.23-1.68,2.6-2.15,4.1-.47,1.5-.7,2.95-.7,4.35v26.8h-8.2V23.4Z"/><path d="M247.4,49.1c0,2.4.32,4.62.95,6.65.63,2.03,1.55,3.82,2.75,5.35,1.2,1.53,2.7,2.73,4.5,3.6,1.8.87,3.87,1.3,6.2,1.3,7.13,0,11.6-3.57,13.4-10.7l8.1,1c-1.53,5.4-4.22,9.43-8.05,12.1-3.83,2.67-8.42,4-13.75,4-3.67.07-6.92-.55-9.75-1.85-2.83-1.3-5.23-3.07-7.2-5.3-1.97-2.23-3.45-4.87-4.45-7.9-1-3.03-1.5-6.25-1.5-9.65,0-3.87.46-7.37,1.4-10.5.93-3.13,2.33-5.82,4.2-8.05,1.87-2.23,4.23-3.95,7.1-5.15,2.87-1.2,6.23-1.8,10.1-1.8s7,.63,9.8,1.9c2.8,1.27,5.12,3.03,6.95,5.3,1.83,2.27,3.22,4.92,4.15,7.95.93,3.03,1.4,6.32,1.4,9.85v1.9h-36.3ZM274.9,42.7c-.27-1.93-.73-3.77-1.4-5.5-.67-1.73-1.6-3.23-2.8-4.5-1.2-1.27-2.63-2.27-4.3-3-1.67-.73-3.63-1.1-5.9-1.1-2,0-3.78.4-5.35,1.2-1.57.8-2.9,1.85-4,3.15-1.1,1.3-1.97,2.8-2.6,4.5-.63,1.7-1.02,3.45-1.15,5.25h27.5Z"/><path d="M299,54.4c0,2.2.4,4.05,1.2,5.55.8,1.5,1.85,2.7,3.15,3.6,1.3.9,2.75,1.54,4.35,1.9,1.6.37,3.23.55,4.9.55.93,0,2.02-.1,3.25-.3,1.23-.2,2.4-.6,3.5-1.2,1.1-.6,2.03-1.43,2.8-2.5.77-1.07,1.15-2.47,1.15-4.2,0-2-.77-3.48-2.3-4.45-1.54-.97-3.47-1.73-5.8-2.3-2.33-.57-4.83-1.08-7.5-1.55-2.67-.47-5.17-1.17-7.5-2.1-2.33-.93-4.27-2.27-5.8-4-1.53-1.73-2.3-4.17-2.3-7.3,0-2.4.53-4.48,1.6-6.25,1.07-1.77,2.47-3.22,4.2-4.35,1.73-1.13,3.67-1.97,5.8-2.5,2.13-.53,4.27-.8,6.4-.8,1.6,0,3.58.23,5.95.7,2.37.47,4.62,1.3,6.75,2.5,2.13,1.2,3.97,2.8,5.5,4.8,1.53,2,2.3,4.53,2.3,7.6l-8.2,1.1c0-1.73-.33-3.25-1-4.55-.67-1.3-1.55-2.37-2.65-3.2-1.1-.83-2.37-1.47-3.8-1.9-1.43-.43-2.92-.65-4.45-.65-1.13,0-2.3.1-3.5.3-1.2.2-2.3.57-3.3,1.1-1,.53-1.82,1.25-2.45,2.15-.63.9-.95,2.08-.95,3.55,0,1.8.78,3.15,2.35,4.05,1.57.9,3.53,1.65,5.9,2.25,2.37.6,4.92,1.17,7.65,1.7,2.73.53,5.28,1.3,7.65,2.3,2.37,1,4.33,2.42,5.9,4.25,1.57,1.83,2.35,4.32,2.35,7.45,0,2.53-.58,4.72-1.75,6.55-1.17,1.83-2.73,3.35-4.7,4.55-1.97,1.2-4.18,2.1-6.65,2.7-2.47.6-5,.9-7.6.9s-5.12-.32-7.55-.95c-2.43-.63-4.62-1.62-6.55-2.95-1.93-1.33-3.53-3.08-4.8-5.25-1.27-2.17-2.04-4.75-2.3-7.75l8.8-1.1Z"/></svg>