<?xml version="1.0" encoding="UTF-8"?><svg id="Ebene_1" xmlns="http://www.w3.org/2000/svg" viewBox="0 0 173.7 72.41"><path d="M0,23.4h7.9v-14.9h8.2v14.9h8.9v7h-8.9v30.4c0,1.13.13,2.18.4,3.15.27.97,1.23,1.45,2.9,1.45.93,0,1.8-.08,2.6-.25.8-.17,1.63-.42,2.5-.75v7c-1.33.33-2.68.58-4.05.75-1.37.17-2.72.25-4.05.25-2.13,0-3.77-.23-4.9-.7-1.13-.47-1.97-1.12-2.5-1.95-.53-.83-.85-1.83-.95-3-.1-1.17-.15-2.42-.15-3.75V30.4H0v-7Z"/><path d="M61.4,38.3c0-3.4-.83-5.87-2.5-7.4-1.67-1.53-4.57-2.3-8.7-2.3-6.2,0-9.47,3.27-9.8,9.8l-8.2-.5c.53-5.4,2.35-9.37,5.45-11.9,3.1-2.53,7.32-3.8,12.65-3.8,2,0,4.13.18,6.4.55,2.27.37,4.35,1.08,6.25,2.14,1.9,1.07,3.48,2.56,4.75,4.49,1.27,1.93,1.9,4.46,1.9,7.58v22.15c0,2.33.37,3.81,1.1,4.44.73.63,1.53.95,2.4.95.8,0,1.63-.17,2.5-.5v6.9c-.8.2-1.63.37-2.5.5-.87.13-1.73.2-2.6.2-2.47,0-4.33-.54-5.6-1.62-1.27-1.08-2.17-2.77-2.7-5.07-4.47,5-10.13,7.49-17,7.49-2.13,0-4.13-.33-6-1-1.87-.67-3.48-1.6-4.85-2.8-1.37-1.2-2.45-2.6-3.25-4.2-.8-1.6-1.2-3.33-1.2-5.2,0-3.27.72-5.93,2.15-8,1.43-2.07,3.5-3.7,6.2-4.9,2.7-1.2,6-2.07,9.9-2.6,3.9-.53,8.32-.93,13.25-1.2v-4.2ZM61.4,47.9c-3.33.47-6.4.95-9.2,1.45-2.8.5-5.2,1.13-7.2,1.9-2,.77-3.55,1.73-4.65,2.9-1.1,1.17-1.65,2.68-1.65,4.55,0,1.47.3,2.67.9,3.6.6.93,1.35,1.68,2.25,2.25.9.57,1.88.95,2.95,1.15,1.07.2,2.1.3,3.1.3,3.87,0,7.08-1.1,9.65-3.3,2.57-2.2,3.85-5.3,3.85-9.3v-5.5Z"/><path d="M83.4,0h8.2v43.9l18.8-20.3h9.9l-17.4,18.9,21.5,28.7h-10.3l-16.8-22.8-5.7,6.1v16.7h-8.2V0Z"/><path d="M137.4,49.1c0,2.4.32,4.62.95,6.65.63,2.03,1.55,3.82,2.75,5.35,1.2,1.53,2.7,2.73,4.5,3.6,1.8.87,3.87,1.3,6.2,1.3,7.13,0,11.6-3.57,13.4-10.7l8.1,1c-1.53,5.4-4.22,9.43-8.05,12.1-3.83,2.67-8.42,4-13.75,4-3.67.07-6.92-.55-9.75-1.85-2.83-1.3-5.23-3.07-7.2-5.3-1.97-2.23-3.45-4.87-4.45-7.9-1-3.03-1.5-6.25-1.5-9.65,0-3.87.46-7.37,1.4-10.5.93-3.13,2.33-5.82,4.2-8.05,1.87-2.23,4.23-3.95,7.1-5.15,2.87-1.2,6.23-1.8,10.1-1.8s7,.63,9.8,1.9c2.8,1.27,5.12,3.03,6.95,5.3,1.83,2.27,3.22,4.92,4.15,7.95.93,3.03,1.4,6.32,1.4,9.85v1.9h-36.3ZM164.9,42.7c-.27-1.93-.73-3.77-1.4-5.5-.67-1.73-1.6-3.23-2.8-4.5-1.2-1.27-2.63-2.27-4.3-3-1.67-.73-3.63-1.1-5.9-1.1-2,0-3.78.4-5.35,1.2-1.57.8-2.9,1.85-4,3.15-1.1,1.3-1.97,2.8-2.6,4.5-.63,1.7-1.02,3.45-1.15,5.25h27.5Z"/></svg>